<svg xmlns="http://www.w3.org/2000/svg" viewBox="0 0 300 180"><defs><linearGradient id="w" x1="0" x2="1" y1="0" y2="1"><stop stop-color="#42b8ff"/><stop offset="1" stop-color="#2256d5"/></linearGradient></defs><rect width="300" height="180" rx="12" fill="#eef8ff"/><g transform="translate(44 20)"><rect width="212" height="119" rx="8" fill="#182533"/><rect x="7" y="7" width="198" height="105" rx="3" fill="url(#w)"/><path d="m100 39 18 18-18 18-18-18zm29 0 18 18-18 18-18-18zm-29 29 18 18-18 18-18-18zm29 0 18 18-18 18-18-18z" fill="#d9efff" opacity=".55"/><path d="M91 139h30l4 10h-38zm-17 10h76v6H74z" fill="#40515e"/></g></svg>
