<svg width="1600" height="1200" viewBox="0 0 1600 1200" fill="none" xmlns="http://www.w3.org/2000/svg">
  <rect width="1600" height="1200" fill="#0B0F17"/>
  <circle cx="1250" cy="210" r="520" fill="url(#paint0_radial)"/>
  <circle cx="260" cy="980" r="590" fill="url(#paint1_radial)"/>
  <g opacity="0.46" stroke="#5CA2FF">
    <path d="M-80 820C240 590 490 590 790 760C1080 925 1330 900 1680 610"/>
    <path d="M-80 870C240 640 490 640 790 810C1080 975 1330 950 1680 660" opacity="0.55"/>
    <path d="M-80 920C240 690 490 690 790 860C1080 1025 1330 1000 1680 710" opacity="0.28"/>
  </g>
  <g transform="translate(600 280)">
    <rect width="400" height="400" rx="72" fill="#111B2B" stroke="#2A3749" stroke-width="3"/>
    <path d="M200 76C130 76 76 130 76 200C76 270 130 324 200 324C270 324 324 270 324 200" stroke="#8EC0FF" stroke-width="18" stroke-linecap="round"/>
    <path d="M200 118C154 118 118 154 118 200C118 246 154 282 200 282C246 282 282 246 282 200" stroke="#367FF5" stroke-width="18" stroke-linecap="round"/>
    <path d="M200 160C178 160 160 178 160 200C160 222 178 240 200 240C222 240 240 222 240 200" stroke="#31C48D" stroke-width="18" stroke-linecap="round"/>
    <circle cx="200" cy="200" r="12" fill="#F3F6FB"/>
  </g>
  <defs>
    <radialGradient id="paint0_radial" cx="0" cy="0" r="1" gradientUnits="userSpaceOnUse" gradientTransform="translate(1250 210) rotate(90) scale(520)">
      <stop stop-color="#2563DD" stop-opacity="0.55"/>
      <stop offset="1" stop-color="#2563DD" stop-opacity="0"/>
    </radialGradient>
    <radialGradient id="paint1_radial" cx="0" cy="0" r="1" gradientUnits="userSpaceOnUse" gradientTransform="translate(260 980) rotate(90) scale(590)">
      <stop stop-color="#214FB4" stop-opacity="0.42"/>
      <stop offset="1" stop-color="#214FB4" stop-opacity="0"/>
    </radialGradient>
  </defs>
</svg>
